<?plantuml 1.2026.2?><svg xmlns="http://www.w3.org/2000/svg" xmlns:xlink="http://www.w3.org/1999/xlink" contentStyleType="text/css" data-diagram-type="DESCRIPTION" height="8875px" preserveAspectRatio="none" style="width:3237px;height:8875px;background:#FFFFFF;" version="1.1" viewBox="0 0 3237 8875" width="3237.5px" zoomAndPan="magnify"><defs/><g><!--cluster Transformer Encoder Block (Ch? d?ng 1 block)--><g class="cluster" data-qualified-name="Transformer Encoder Block .Ch. d.ng 1 block." data-source-line="21" id="ent0007"><path d="M371.875,2650 L2652.6123,2650 A23.4375,23.4375 0 0 1 2668.2373,2665.625 L2711.9873,2793.8416 L3178.125,2793.8416 A15.625,15.625 0 0 1 3193.75,2809.4666 L3193.75,6859.375 A15.625,15.625 0 0 1 3178.125,6875 L371.875,6875 A15.625,15.625 0 0 1 356.25,6859.375 L356.25,2665.625 A15.625,15.625 0 0 1 371.875,2650" fill="#FFFFFF" style="stroke:#000000;stroke-width:6.25;"/><line style="stroke:#000000;stroke-width:6.25;" x1="356.25" x2="2711.9873" y1="2793.8416" y2="2793.8416"/><text fill="#000000" font-family="Verdana" font-size="87.5" font-weight="bold" lengthAdjust="spacing" textLength="2274.4873" x="381.25" y="2750.47">Transformer Encoder Block (Ch&#7881; d&#249;ng 1 block)</text><text fill="#000000" font-family="Verdana" font-size="87.5" font-style="italic" lengthAdjust="spacing" textLength="544.2688" x="1527.8656" y="2894.3115">&#171;Rectangle&#187;</text></g><!--entity SelfAttn--><g class="entity" data-qualified-name="Transformer Encoder Block .Ch. d.ng 1 block..SelfAttn" data-source-line="23" id="ent0008"><rect fill="#FFF2CC" height="337.6831" rx="15.625" ry="15.625" style="stroke:#000000;stroke-width:6.25;" width="1051.7395" x="756.25" y="2981.25"/><text fill="#000000" font-family="Verdana" font-size="87.5" lengthAdjust="spacing" textLength="609.6802" x="977.2797" y="3131.72">Self-Attention</text><text fill="#000000" font-family="Verdana" font-size="87.5" lengthAdjust="spacing" textLength="926.7395" x="818.75" y="3238.0615">(Scaled Dot-Product)</text></g><!--entity Add2--><g class="entity" data-qualified-name="Transformer Encoder Block .Ch. d.ng 1 block..Add2" data-source-line="24" id="ent0009"><ellipse cx="1962.5" cy="3887.5" fill="#FFFFFF" rx="50" ry="50" style="stroke:#000000;stroke-width:6.25;"/><text fill="#000000" font-family="Verdana" font-size="87.5" lengthAdjust="spacing" textLength="71.6064" x="1926.6968" y="4081.72">+</text></g><!--entity Norm1--><g class="entity" data-qualified-name="Transformer Encoder Block .Ch. d.ng 1 block..Norm1" data-source-line="26" id="ent0010"><rect fill="#FCE4D6" height="231.3416" rx="15.625" ry="15.625" style="stroke:#000000;stroke-width:6.25;" width="1005.3406" x="1459.375" y="4456.25"/><text fill="#000000" font-family="Verdana" font-size="87.5" lengthAdjust="spacing" textLength="880.3406" x="1521.875" y="4606.72">Layer Normalization</text></g><!--entity FFN--><g class="entity" data-qualified-name="Transformer Encoder Block .Ch. d.ng 1 block..FFN" data-source-line="28" id="ent0011"><rect fill="#FFF2CC" height="337.6831" rx="15.625" ry="15.625" style="stroke:#000000;stroke-width:6.25;" width="1363.7146" x="456.25" y="5068.75"/><text fill="#000000" font-family="Verdana" font-size="87.5" lengthAdjust="spacing" textLength="1238.7146" x="518.75" y="5219.22">FeedForward Network (FFN)</text><text fill="#000000" font-family="Verdana" font-size="87.5" lengthAdjust="spacing" textLength="1191.1194" x="542.5476" y="5325.5615">(Linear -&gt; ReLU -&gt; Linear)</text></g><!--entity Add3--><g class="entity" data-qualified-name="Transformer Encoder Block .Ch. d.ng 1 block..Add3" data-source-line="29" id="ent0012"><ellipse cx="1975" cy="5975" fill="#FFFFFF" rx="50" ry="50" style="stroke:#000000;stroke-width:6.25;"/><text fill="#000000" font-family="Verdana" font-size="87.5" lengthAdjust="spacing" textLength="71.6064" x="1939.1968" y="6169.22">+</text></g><!--entity Norm2--><g class="entity" data-qualified-name="Transformer Encoder Block .Ch. d.ng 1 block..Norm2" data-source-line="31" id="ent0013"><rect fill="#FCE4D6" height="231.3416" rx="15.625" ry="15.625" style="stroke:#000000;stroke-width:6.25;" width="1005.3406" x="1471.875" y="6543.75"/><text fill="#000000" font-family="Verdana" font-size="87.5" lengthAdjust="spacing" textLength="880.3406" x="1534.375" y="6694.22">Layer Normalization</text></g><!--entity Input--><g class="entity" data-qualified-name="Input" data-source-line="13" id="ent0002"><rect fill="#EAEAEA" height="337.6831" rx="15.625" ry="15.625" style="stroke:#000000;stroke-width:6.25;" width="1371.5332" x="1253.125" y="75"/><text fill="#000000" font-family="Verdana" font-size="87.5" lengthAdjust="spacing" textLength="1246.5332" x="1315.625" y="225.47">&#272;&#7847;u v&#224;o: C&#226;u v&#259;n ti&#7871;ng Anh</text><text fill="#000000" font-family="Verdana" font-size="87.5" lengthAdjust="spacing" textLength="613.3118" x="1632.2357" y="331.8115">(T&#7889;i &#273;a 20 t&#7915;)</text></g><!--entity Token--><g class="entity" data-qualified-name="Token" data-source-line="14" id="ent0003"><rect fill="#FFFFFF" height="231.3416" rx="15.625" ry="15.625" style="stroke:#000000;stroke-width:6.25;" width="571.8994" x="1650" y="793.75"/><text fill="#000000" font-family="Verdana" font-size="87.5" lengthAdjust="spacing" textLength="446.8994" x="1712.5" y="944.22">Token IDs</text></g><!--entity Embedding--><g class="entity" data-qualified-name="Embedding" data-source-line="16" id="ent0004"><rect fill="#DDEBF7" height="337.6831" rx="15.625" ry="15.625" style="stroke:#000000;stroke-width:6.25;" width="1116.5955" x="1378.125" y="1406.25"/><text fill="#000000" font-family="Verdana" font-size="87.5" lengthAdjust="spacing" textLength="763.2751" x="1554.7852" y="1556.72">Embedding Layer</text><text fill="#000000" font-family="Verdana" font-size="87.5" lengthAdjust="spacing" textLength="991.5955" x="1440.625" y="1663.0615">(K&#237;ch th&#432;&#7899;c: d_model)</text></g><!--entity PosEncoding--><g class="entity" data-qualified-name="PosEncoding" data-source-line="17" id="ent0005"><rect fill="#E2EFDA" height="231.3416" rx="15.625" ry="15.625" style="stroke:#000000;stroke-width:6.25;" width="972.5708" x="75" y="2125"/><text fill="#000000" font-family="Verdana" font-size="87.5" lengthAdjust="spacing" textLength="847.5708" x="137.5" y="2275.47">Positional Encoding</text></g><!--entity Add1--><g class="entity" data-qualified-name="Add1" data-source-line="19" id="ent0006"><ellipse cx="1937.5" cy="2240.625" fill="#FFFFFF" rx="50" ry="50" style="stroke:#000000;stroke-width:6.25;"/><text fill="#000000" font-family="Verdana" font-size="87.5" lengthAdjust="spacing" textLength="71.6064" x="1901.6968" y="2434.845">+</text></g><!--entity MeanPool--><g class="entity" data-qualified-name="MeanPool" data-source-line="34" id="ent0014"><rect fill="#EAEAEA" height="231.3416" rx="15.625" ry="15.625" style="stroke:#000000;stroke-width:6.25;" width="706.4392" x="1621.875" y="7168.75"/><text fill="#000000" font-family="Verdana" font-size="87.5" lengthAdjust="spacing" textLength="581.4392" x="1684.375" y="7319.22">Mean Pooling</text></g><!--entity Classifier--><g class="entity" data-qualified-name="Classifier" data-source-line="36" id="ent0015"><rect fill="#DDEBF7" height="337.6831" rx="15.625" ry="15.625" style="stroke:#000000;stroke-width:6.25;" width="920.5322" x="1515.625" y="7781.25"/><text fill="#000000" font-family="Verdana" font-size="87.5" lengthAdjust="spacing" textLength="652.7893" x="1649.4965" y="7931.72">Classifier Head</text><text fill="#000000" font-family="Verdana" font-size="87.5" lengthAdjust="spacing" textLength="795.5322" x="1578.125" y="8038.0615">(M&#7841;ng tuy&#7871;n t&#237;nh)</text></g><!--entity Output--><g class="entity" data-qualified-name="Output" data-source-line="38" id="ent0016"><rect fill="#EAEAEA" height="337.6831" rx="15.625" ry="15.625" style="stroke:#000000;stroke-width:6.25;" width="1453.2227" x="1246.875" y="8500"/><text fill="#000000" font-family="Verdana" font-size="87.5" lengthAdjust="spacing" textLength="1079.5654" x="1433.7036" y="8650.47">&#272;&#7847;u ra: 3 Nh&#227;n c&#7843;m x&#250;c</text><text fill="#000000" font-family="Verdana" font-size="87.5" lengthAdjust="spacing" textLength="1328.2227" x="1309.375" y="8756.8115">(Positive / Negative / Neutral)</text></g><!--link Input to Token--><g class="link" data-entity-1="ent0002" data-entity-2="ent0003" data-link-type="dependency" data-source-line="40" id="lnk17"><path d="M1937.5,413.125 C1937.5,531.75 1937.5,651.6875 1937.5,755.6875" fill="none" id="Input-to-Token" style="stroke:#333333;stroke-width:6.25;"/><polygon fill="#333333" points="1937.5,793.1875,1962.5,736.9375,1937.5,761.9375,1912.5,736.9375,1937.5,793.1875" style="stroke:#333333;stroke-width:6.25;"/></g><!--link Token to Embedding--><g class="link" data-entity-1="ent0003" data-entity-2="ent0004" data-link-type="dependency" data-source-line="41" id="lnk18"><path d="M1937.5,1026.4375 C1937.5,1130.5 1937.5,1250 1937.5,1368.375" fill="none" id="Token-to-Embedding" style="stroke:#333333;stroke-width:6.25;"/><polygon fill="#333333" points="1937.5,1405.875,1962.5,1349.625,1937.5,1374.625,1912.5,1349.625,1937.5,1405.875" style="stroke:#333333;stroke-width:6.25;"/></g><!--link Embedding to Add1--><g class="link" data-entity-1="ent0004" data-entity-2="ent0006" data-link-type="dependency" data-source-line="43" id="lnk19"><path d="M1937.5,1744.375 C1937.5,1887.9375 1937.5,2050.8125 1937.5,2144.5625" fill="none" id="Embedding-to-Add1" style="stroke:#333333;stroke-width:6.25;"/><polygon fill="#333333" points="1937.5,2182.0625,1962.5,2125.8125,1937.5,2150.8125,1912.5,2125.8125,1937.5,2182.0625" style="stroke:#333333;stroke-width:6.25;"/></g><!--link PosEncoding to Add1--><g class="link" data-entity-1="ent0005" data-entity-2="ent0006" data-link-type="dependency" data-source-line="44" id="lnk20"><path d="M1051.125,2240.625 C1364.5625,2240.625 1700.75,2240.625 1842.0625,2240.625" fill="none" id="PosEncoding-to-Add1" style="stroke:#333333;stroke-width:6.25;"/><polygon fill="#333333" points="1879.5625,2240.625,1823.3125,2215.625,1848.3125,2240.625,1823.3125,2265.625,1879.5625,2240.625" style="stroke:#333333;stroke-width:6.25;"/><text fill="#000000" font-family="Verdana" font-size="81.25" lengthAdjust="spacing" textLength="605.7251" x="1165.625" y="2103.5614">C&#7897;ng th&#244;ng tin</text><text fill="#000000" font-family="Verdana" font-size="81.25" lengthAdjust="spacing" textLength="187.9303" x="1374.5224" y="2202.3071">v&#7883; tr&#237;</text></g><!--link Add1 to SelfAttn--><g class="link" data-entity-1="ent0006" data-entity-2="ent0008" data-link-type="dependency" data-source-line="46" id="lnk21"><path d="M1900.3125,2297.6875 C1805.6875,2427 1574.5812,2742.861 1422.8937,2950.1735" fill="none" id="Add1-to-SelfAttn" style="stroke:#333333;stroke-width:6.25;"/><polygon fill="#333333" points="1400.75,2980.4375,1454.1415,2949.804,1419.2031,2955.2175,1413.7896,2920.2791,1400.75,2980.4375" style="stroke:#333333;stroke-width:6.25;"/></g><!--link Add1 to Add2--><g class="link" data-entity-1="ent0006" data-entity-2="ent0009" data-link-type="dependency" data-source-line="48" id="lnk22"><path d="M1938.25,2297.5625 C1942,2541.125 1957.4196,3551.3795 1961.1696,3793.6295" fill="none" id="Add1-to-Add2" style="stroke:#333333;stroke-width:12.5;"/><polygon fill="#333333" points="1961.75,3831.125,1985.8764,3774.4948,1961.2663,3799.8787,1935.8824,3775.2687,1961.75,3831.125" style="stroke:#333333;stroke-width:12.5;"/><text fill="#000000" font-family="Verdana" font-size="81.25" lengthAdjust="spacing" textLength="825.8698" x="1956.25" y="3184.8114">Residual Connection</text></g><!--link SelfAttn to Add2--><g class="link" data-entity-1="ent0008" data-entity-2="ent0009" data-link-type="dependency" data-source-line="49" id="lnk23"><path d="M1434.125,3318.9375 C1587.9375,3482.625 1790.2653,3697.9152 1888.7028,3802.7277" fill="none" id="SelfAttn-to-Add2" style="stroke:#333333;stroke-width:6.25;"/><polygon fill="#333333" points="1914.375,3830.0625,1894.0899,3771.9456,1892.9815,3807.2835,1857.6436,3806.1751,1914.375,3830.0625" style="stroke:#333333;stroke-width:6.25;"/></g><!--link Add2 to Norm1--><g class="link" data-entity-1="ent0009" data-entity-2="ent0010" data-link-type="dependency" data-source-line="51" id="lnk24"><path d="M1962.5,3944.25 C1962.5,4052.3125 1962.5,4270.5 1962.5,4418" fill="none" id="Add2-to-Norm1" style="stroke:#333333;stroke-width:6.25;"/><polygon fill="#333333" points="1962.5,4455.5,1987.5,4399.25,1962.5,4424.25,1937.5,4399.25,1962.5,4455.5" style="stroke:#333333;stroke-width:6.25;"/></g><!--link Norm1 to FFN--><g class="link" data-entity-1="ent0010" data-entity-2="ent0011" data-link-type="dependency" data-source-line="53" id="lnk25"><path d="M1822.5625,4688.9375 C1691.0625,4793 1522.1497,4926.7211 1372.6497,5045.0961" fill="none" id="Norm1-to-FFN" style="stroke:#333333;stroke-width:6.25;"/><polygon fill="#333333" points="1343.25,5068.375,1402.8688,5053.0565,1367.7498,5048.9759,1371.8303,5013.8569,1343.25,5068.375" style="stroke:#333333;stroke-width:6.25;"/></g><!--link Norm1 to Add3--><g class="link" data-entity-1="ent0010" data-entity-2="ent0012" data-link-type="dependency" data-source-line="55" id="lnk26"><path d="M1963.5,4689.5625 C1966.0625,4973.1875 1972.3407,5676.5641 1974.2157,5879.3141" fill="none" id="Norm1-to-Add3" style="stroke:#333333;stroke-width:12.5;"/><polygon fill="#333333" points="1974.5625,5916.8125,1999.0413,5860.3337,1974.2735,5885.5638,1949.0434,5860.7961,1974.5625,5916.8125" style="stroke:#333333;stroke-width:12.5;"/><text fill="#000000" font-family="Verdana" font-size="81.25" lengthAdjust="spacing" textLength="825.8698" x="1975" y="5272.3114">Residual Connection</text></g><!--link FFN to Add3--><g class="link" data-entity-1="ent0011" data-entity-2="ent0012" data-link-type="dependency" data-source-line="56" id="lnk27"><path d="M1325.4375,5406.4375 C1515.4375,5570.9375 1769.3345,5790.707 1889.3345,5894.582" fill="none" id="FFN-to-Add3" style="stroke:#333333;stroke-width:6.25;"/><polygon fill="#333333" points="1917.6875,5919.125,1891.5201,5863.4085,1894.06,5898.6725,1858.7961,5901.2124,1917.6875,5919.125" style="stroke:#333333;stroke-width:6.25;"/></g><!--link Add3 to Norm2--><g class="link" data-entity-1="ent0012" data-entity-2="ent0013" data-link-type="dependency" data-source-line="58" id="lnk28"><path d="M1975,6031.75 C1975,6139.8125 1975,6358 1975,6505.5" fill="none" id="Add3-to-Norm2" style="stroke:#333333;stroke-width:6.25;"/><polygon fill="#333333" points="1975,6543,2000,6486.75,1975,6511.75,1950,6486.75,1975,6543" style="stroke:#333333;stroke-width:6.25;"/></g><!--link Norm2 to MeanPool--><g class="link" data-entity-1="ent0013" data-entity-2="ent0014" data-link-type="dependency" data-source-line="60" id="lnk29"><path d="M1975,6775.125 C1975,6885.9375 1975,7018.8125 1975,7130" fill="none" id="Norm2-to-MeanPool" style="stroke:#333333;stroke-width:6.25;"/><polygon fill="#333333" points="1975,7167.5,2000,7111.25,1975,7136.25,1950,7111.25,1975,7167.5" style="stroke:#333333;stroke-width:6.25;"/></g><!--link MeanPool to Classifier--><g class="link" data-entity-1="ent0014" data-entity-2="ent0015" data-link-type="dependency" data-source-line="61" id="lnk30"><path d="M1975,7401.4375 C1975,7505.5 1975,7625 1975,7743.375" fill="none" id="MeanPool-to-Classifier" style="stroke:#333333;stroke-width:6.25;"/><polygon fill="#333333" points="1975,7780.875,2000,7724.625,1975,7749.625,1950,7724.625,1975,7780.875" style="stroke:#333333;stroke-width:6.25;"/></g><!--link Classifier to Output--><g class="link" data-entity-1="ent0015" data-entity-2="ent0016" data-link-type="dependency" data-source-line="62" id="lnk31"><path d="M1975,8120.0625 C1975,8234.125 1975,8348.1875 1975,8462.0625" fill="none" id="Classifier-to-Output" style="stroke:#333333;stroke-width:6.25;"/><polygon fill="#333333" points="1975,8499.5625,2000,8443.3125,1975,8468.3125,1950,8443.3125,1975,8499.5625" style="stroke:#333333;stroke-width:6.25;"/></g><?plantuml-src bLDDRnCn4BtxLmpDfGX5j1i4KbHLIZTPKT66gYtY00YvQoThTMD7Ncy_G9mu8IxqYBW0FN10bJXm8Jbms8h_iV-4iPrijYeWiP6ow_7pcpSpprbCKmu1oGw575DDHy360behAuJSC0aVSHYdLCZwFX_GF3Nx_CHqKZ6K8ouDnFZ7TGtLqLeTXofL6Xejzv3QhbICmqi2-6mepRY-YdHn6XyEjSebytkF4s4uUKM8vh6XSeYgboxVbPClEHmL7rKRmk8pVbw-bc14EVafXz2HoLEvl5zEpmHSdb48Li2Kqwytbu1ci2d7kO56hsD_TT9zTSWbR7Op1tEhAqbxemFEc43-BNhADMPuK5p42PZarxTo-Y5k0ti-mlfIdsS1RtIxlOteNfrhHsN222Lf2ZqPAmjpXp0-NwF4e1TrEuJ4GiVsq2q7wJ2sIiWOkqI7LhMcCXieFUBQK-5x8rNn8Io7IJbz0wpuWMIhS623A6rjRNUkOtqTP-6QNfEsnzD1isCC3XO5OfLxrYaCkieqTxHYUMnyWHQ8E0cDA8g2C7H4rxG6rnAuxa4V9TDKlA0sYmFRo2gIXRqxtRlNJaMSiqZfOwePzBavLXehZAB-JLIu9IId6fhhiCkt7jctZtYT2FgtnDP_IGmgYLSzkSsfnFcfT3vB6x3hocjrT9ZIB1C3WMdkSygmYEroyWa7PV9JQs8mnOLCV04rxDnAVxWCchQX1VsaE9SGbvFp4PmKanY9lTUEEDp6nWrfzPaRJMTUVPYR-gKW_euqiP7-6lYhOTULgmbP6DnkE5lMxTlKOfYOsGwqiUHo-juMc1JVxKkWjuxAwLimkhXO8iJ1BDFSLrNeoO5AsJD755YYNPu9bkFL2PMKs0Sx7LAvSIOcSCS3jtJE8iGRp0RG4ejbZRxrLtfheXbpop6tAkR0K_bKyw6JQleskfWWgGtJxlZEazy0?></g></svg>